<?xml version="1.0" encoding="utf-8"?>
<!-- Generator: Adobe Illustrator 27.2.0, SVG Export Plug-In . SVG Version: 6.00 Build 0)  -->
<svg version="1.1" id="Capa_1" xmlns="http://www.w3.org/2000/svg" xmlns:xlink="http://www.w3.org/1999/xlink" x="0px" y="0px"
	 viewBox="0 0 1190.55 841.89" style="enable-background:new 0 0 1190.55 841.89;" xml:space="preserve">
<style type="text/css">
	.st0{fill:#E0A326;}
</style>
<path d="M354.38,179.09h53.82v244.25h-53.82V179.09z"/>
<path d="M450.62,255.67h49.68v22.77h0.69c6.9-13.11,23.81-26.91,48.99-26.91c52.44,0,62.1,34.5,62.1,79.35v92.46h-51.75v-82.1
	c0-19.32-0.34-44.16-26.91-44.16c-26.91,0-31.05,21.04-31.05,42.78v83.49h-51.74V255.67z"/>
<path d="M762.8,297.07h-45.54v55.89c0,17.94,2.07,31.05,24.49,31.05c5.52,0,16.56-0.69,21.04-4.83v43.12
	c-11.38,4.14-24.15,5.18-36.22,5.18c-34.5,0-61.06-14.14-61.06-50.71v-79.69H632.4v-41.4h33.12V206h51.75v49.68h45.54V297.07z"/>
<path d="M947.7,394.36c-16.56,21.04-43.81,33.12-70.72,33.12c-51.75,0-93.14-34.5-93.14-87.97s41.4-87.97,93.14-87.97
	c48.3,0,78.66,34.5,78.66,87.97v16.22H835.59c4.14,19.66,18.97,32.43,38.98,32.43c16.9,0,28.29-8.63,36.92-20.35L947.7,394.36z
	 M903.89,320.53c0.34-17.25-13.11-31.74-31.74-31.74c-22.77,0-35.19,15.52-36.57,31.74H903.89z"/>
<path d="M987.02,255.67h51.74v26.91h0.69c11.04-20.35,25.53-31.05,48.3-31.05c5.87,0,12.42,0.35,17.25,1.73v47.26
	c-7.24-2.07-14.49-3.45-22.08-3.45c-39.33,0-44.16,22.77-44.16,56.23v70.03h-51.74V255.67z"/>
<path d="M207.51,452.69c-10.7-12.76-26.22-20.01-46.24-20.01c-40.71,0-70.71,33.12-70.71,78.66c0,45.54,30.01,78.66,69,78.66
	c21.74,0,39.32-9.66,50.37-26.22l44.85,33.46c-20.35,28.98-54.85,42.43-88.32,42.43c-76.24,0-131.79-50.03-131.79-128.34
	s55.54-128.33,131.79-128.33c27.26,0,61.75,9.32,82.45,35.88L207.51,452.69z"/>
<path d="M277.52,465.8h51.74v26.91h0.69c11.04-20.35,25.52-31.05,48.3-31.05c5.86,0,12.42,0.35,17.24,1.73v47.26
	c-7.24-2.07-14.49-3.45-22.08-3.45c-39.32,0-44.16,22.77-44.16,56.23v70.03h-51.74V465.8z"/>
<g>
	<path class="st0" d="M505.36,461.66c51.74,0,93.14,34.5,93.14,87.97c0,53.47-41.4,87.97-93.14,87.97
		c-51.75,0-93.14-34.5-93.14-87.97C412.22,496.16,453.61,461.66,505.36,461.66z M505.36,592.07c25.87,0,41.39-17.25,41.39-42.43
		c0-25.18-15.52-42.43-41.39-42.43c-25.88,0-41.4,17.25-41.4,42.43C463.96,574.82,479.49,592.07,505.36,592.07z"/>
	<path class="st0" d="M952.86,461.66c51.74,0,93.14,34.5,93.14,87.97c0,53.47-41.4,87.97-93.14,87.97
		c-51.75,0-93.14-34.5-93.14-87.97C859.72,496.16,901.11,461.66,952.86,461.66z M952.86,592.07c25.87,0,41.39-17.25,41.39-42.43
		c0-25.18-15.52-42.43-41.39-42.43c-25.88,0-41.4,17.25-41.4,42.43C911.46,574.82,926.99,592.07,952.86,592.07z"/>
	<circle cx="518.07" cy="549.63" r="12.71"/>
	<circle cx="943.41" cy="549.63" r="12.71"/>
	<path class="st0" d="M805.91,529.26c-22.72,0-37.56,7.89-48.61,27.46c0.63-1.11-3.9-7.14-4.64-8.16c-1.93-2.69-4.18-5.16-6.69-7.33
		c-5.03-4.35-11.28-8.51-18.21-7.94c-11.57,0.95-22.01,13.58-26.35,23.44c-11.05-19.57-25.89-27.46-48.61-27.46
		c-41.66,0-54.29,29.35-54.29,66.6v90.58h47.35v-89.32c0-14.2,5.37-26.2,20.83-26.2c21.78,0,28.73,15.46,28.73,34.4v81.11h17.73
		h12.61h7.21h19.03h11.31v-81.11c0-18.94,6.95-34.4,28.73-34.4c15.46,0,20.83,11.99,20.83,26.2v89.32h47.35v-90.58
		C860.19,558.61,847.57,529.26,805.91,529.26z"/>
</g>
</svg>
